<?xml version="1.0" encoding="utf-8"?>
<svg version="1.1" xmlns="http://www.w3.org/2000/svg" width="1536" height="1024">
  <path d="M 254.23 254.707 C 761.11 254.842 669.153 257.593 1191.393 257.732 C 1193.803 595.653 1191.934 447.019 1194.414 795.175 C 687.534 795.045 778.753 794.412 256.513 794.272 C 254.103 456.348 256.713 602.868 254.23 254.707 Z" fill="none" style=""/>
  <path d="M0 0 C6.9698254 3.73228508 13.593674 8.02037196 20.24609375 12.28515625 C26.24173357 16.1217014 32.30629689 19.84298679 38.375 23.5625 C46.90046659 28.79339853 55.40157813 34.06021911 63.875 39.375 C71.71366125 44.29042139 79.5873937 49.14204117 87.5 53.9375 C95.25120011 58.63561361 102.95727247 63.39453747 110.59765625 68.27099609 C114.80673155 70.95267098 119.04228631 73.57655874 123.32421875 76.140625 C124.27022949 76.71159912 125.21624023 77.28257324 126.19091797 77.87084961 C128.00807954 78.96515802 129.8310007 80.04998279 131.66064453 81.12329102 C137.75326305 84.80831392 143.35988055 88.76714166 145.6875 95.75 C145.77815412 98.16839804 145.81361542 100.55726283 145.80102539 102.9753418 C145.80117142 103.70729767 145.80131744 104.43925354 145.8014679 105.19338989 C145.8007714 107.61202969 145.79299128 110.03059241 145.78515625 112.44921875 C145.78329114 114.12644916 145.78186767 115.80368011 145.78086853 117.48091125 C145.7770507 121.89500432 145.76722666 126.30906447 145.75616455 130.72314453 C145.74593467 135.22753453 145.74136753 139.73192985 145.73632812 144.23632812 C145.72560375 153.07423321 145.70853611 161.91211387 145.6875 170.75 C141.43392741 169.3713425 137.54634315 167.78777143 133.5625 165.75 C132.54929687 165.234375 131.53609375 164.71875 130.4921875 164.1875 C129.56664062 163.713125 128.64109375 163.23875 127.6875 162.75 C126.3675 162.09 125.0475 161.43 123.6875 160.75 C123.6875 146.56 123.6875 132.37 123.6875 117.75 C121.0475 119.420625 118.4075 121.09125 115.6875 122.8125 C108.03600046 127.64939868 100.36641418 132.45676103 92.6875 137.25 C82.33185089 143.71499752 72.00257721 150.22051623 61.6875 156.75 C58.62548476 158.68826749 55.5630547 160.62587555 52.5 162.5625 C51.34528198 163.29267334 51.34528198 163.29267334 50.16723633 164.03759766 C44.68003045 167.50290635 39.17822147 170.94421034 33.66845703 174.37353516 C31.60472199 175.66186904 29.54446167 176.95578641 27.48779297 178.25537109 C22.92017972 181.13936402 18.35534438 183.96882665 13.62890625 186.5859375 C3.51233024 192.32339444 -1.14087791 197.51715534 -4.6328125 208.65283203 C-5.30548192 210.72834581 -6.08128466 212.72681261 -6.90625 214.74609375 C-13.38384844 230.97052416 -16.77803832 249.29297512 -15.3125 266.75 C-15.2520752 267.48686035 -15.19165039 268.2237207 -15.12939453 268.98291016 C-12.45721441 297.61511184 -0.6020759 322.00289924 17.47265625 343.9140625 C18.6875 345.75 18.6875 345.75 18.6875 348.75 C17.11450195 350.06860352 17.11450195 350.06860352 14.92578125 351.37890625 C13.74145508 352.09530273 13.74145508 352.09530273 12.53320312 352.82617188 C11.69724609 353.31666016 10.86128906 353.80714844 10 354.3125 C9.18337891 354.80685547 8.36675781 355.30121094 7.52539062 355.81054688 C0.65290262 359.92291014 -5.13679392 363.10218416 -13.3125 361.75 C-23.44777007 358.13135592 -32.59780186 351.2609325 -41.59667969 345.484375 C-46.43847899 342.39230899 -51.31385959 339.35403576 -56.1875 336.3125 C-57.20360352 335.67771729 -58.21970703 335.04293457 -59.26660156 334.38891602 C-66.62753486 329.79330947 -74.00354952 325.22244894 -81.38500977 320.65991211 C-93.07592556 313.42938146 -104.72168838 306.12645053 -116.37402344 298.83398438 C-118.40777615 297.56134525 -120.44179229 296.289127 -122.47607422 295.01733398 C-124.47909876 293.7638669 -126.48074704 292.50819766 -128.48095703 291.25024414 C-133.38941388 288.16938695 -138.31832491 285.13941693 -143.3125 282.19921875 C-144.27003174 281.6283252 -145.22756348 281.05743164 -146.21411133 280.46923828 C-148.00959739 279.40148187 -149.81362432 278.34789579 -151.62768555 277.31201172 C-152.4350415 276.82877441 -153.24239746 276.34553711 -154.07421875 275.84765625 C-154.77506592 275.44039307 -155.47591309 275.03312988 -156.19799805 274.61352539 C-160.52495225 270.80015033 -162.98259468 267.15279794 -163.78257847 261.32627964 C-163.9711322 256.99805421 -164.00062721 252.6943821 -163.9753418 248.36328125 C-163.98376306 246.70021418 -163.99429175 245.03715665 -164.00675964 243.37411499 C-164.03374486 238.87402482 -164.02912402 234.37449048 -164.01705909 229.87435532 C-164.00991332 226.11188439 -164.01843675 222.34951531 -164.02696449 218.58705235 C-164.04689628 209.70930826 -164.04136999 200.8318336 -164.01928711 191.95410156 C-163.99691828 182.80616486 -164.01453277 173.65893366 -164.05233639 164.51106358 C-164.08359704 156.64497036 -164.09147844 148.77909523 -164.08038265 140.91294765 C-164.07390448 136.22002204 -164.07585538 131.52750352 -164.09970665 126.83462524 C-164.1209949 122.42165142 -164.11293452 118.00967136 -164.08261299 113.5967598 C-164.07629832 111.98111285 -164.08011574 110.36538833 -164.09502411 108.74979782 C-164.2199267 94.01580377 -164.2199267 94.01580377 -158.83963871 88.12226868 C-156.77793334 86.26964476 -154.77187701 84.67742249 -152.390625 83.25 C-151.46080811 82.68128174 -150.53099121 82.11256348 -149.57299805 81.52661133 C-148.57953369 80.94032959 -147.58606934 80.35404785 -146.5625 79.75 C-144.99205933 78.79613403 -144.99205933 78.79613403 -143.38989258 77.82299805 C-141.17006234 76.47529689 -138.94641151 75.13387124 -136.71923828 73.79833984 C-131.11874869 70.43098226 -125.56230666 66.99241775 -120 63.5625 C-118.90840576 62.89186523 -117.81681152 62.22123047 -116.69213867 61.53027344 C-107.17985378 55.68514282 -97.73687306 49.7354469 -88.3125 43.75 C-77.63567541 36.97861579 -66.92846043 30.26134303 -56.17089844 23.61889648 C-50.15682057 19.90166079 -44.16395177 16.15242248 -38.1875 12.375 C-37.40101074 11.87822754 -36.61452148 11.38145508 -35.80419922 10.86962891 C-32.47950323 8.76642353 -29.15960294 6.65705404 -25.859375 4.515625 C-24.89515625 3.89171875 -23.9309375 3.2678125 -22.9375 2.625 C-22.14601563 2.10679687 -21.35453125 1.58859375 -20.5390625 1.0546875 C-13.33892023 -3.16434323 -7.48735764 -3.55544916 0 0 Z " fill="#00C7BD" transform="translate(457.3125,314.25)"/>
  <path d="M0 0 C16.16088588 13.90915142 28.47286065 33.24181282 31.25 54.6875 C33.17116825 80.69281586 28.76192863 104.98335558 11.49731445 125.2644043 C-1.64382823 140.08881024 -21.52715961 150.93895271 -41.46484375 152.58984375 C-42.21894531 152.62207031 -42.97304688 152.65429688 -43.75 152.6875 C-45.45349609 152.78224609 -45.45349609 152.78224609 -47.19140625 152.87890625 C-67.48192004 153.4937703 -85.55631592 146.89192579 -101.75 134.6875 C-102.62978516 134.03587891 -102.62978516 134.03587891 -103.52734375 133.37109375 C-119.65024753 120.5385785 -129.66574703 99.9881848 -132.46875 79.828125 C-134.67900024 55.14699732 -128.89607072 32.65409136 -113.4375 13.0625 C-84.96336757 -20.62320409 -35.09195961 -27.70160271 0 0 Z " fill="#111629" transform="translate(596.75,507.3125)"/>
  <path d="M0 0 C4.15147562 1.59421017 7.65815004 3.81830687 11.35546875 6.26953125 C13.0567113 7.37068883 14.75856319 8.47090542 16.4609375 9.5703125 C17.80744385 10.44550537 17.80744385 10.44550537 19.18115234 11.33837891 C23.97613559 14.43215931 28.82392153 17.44088917 33.66796875 20.45703125 C35.70977604 21.73154558 37.75144135 23.00628739 39.79296875 24.28125 C40.81390625 24.91853027 41.83484375 25.55581055 42.88671875 26.21240234 C45.9606581 28.13215897 49.03328751 30.05399383 52.10546875 31.9765625 C61.5509958 37.88675287 71.00317341 43.78539742 80.48046875 49.64453125 C82.17712738 50.69524138 83.87374144 51.74602348 85.5703125 52.796875 C88.43153328 54.56892049 91.29456554 56.33786981 94.16064453 58.10205078 C97.45783496 60.13209707 100.75064033 62.16911162 104.04296875 64.20703125 C105.58791016 65.15449219 105.58791016 65.15449219 107.1640625 66.12109375 C108.60652344 67.01634766 108.60652344 67.01634766 110.078125 67.9296875 C110.92898682 68.4544165 111.77984863 68.97914551 112.65649414 69.51977539 C115.04868393 71.19222239 116.98317443 73.0228559 118.98046875 75.14453125 C112.28301247 80.07507067 105.31705409 84.44031098 98.20922852 88.74560547 C90.19692856 93.60268811 82.28268542 98.60874784 74.37158203 103.62841797 C69.61575957 106.6439027 64.85240384 109.64747436 60.09033203 112.65307617 C56.21620973 115.09886846 52.34396659 117.54750234 48.4765625 120.00390625 C37.97121948 126.6690846 27.39831824 133.21934226 16.78686523 139.71386719 C15.73055908 140.36129883 14.67425293 141.00873047 13.5859375 141.67578125 C12.5964209 142.2790625 11.6069043 142.88234375 10.58740234 143.50390625 C8.49117415 144.82312834 6.51579813 146.19984861 4.53125 147.67578125 C1.98046875 149.14453125 1.98046875 149.14453125 -0.41674805 148.88012695 C-3.01253696 148.14650797 -4.91873774 147.24353378 -7.21484375 145.84375 C-8.0027832 145.36768311 -8.79072266 144.89161621 -9.60253906 144.40112305 C-10.44139648 143.88332275 -11.28025391 143.36552246 -12.14453125 142.83203125 C-13.02979492 142.29296143 -13.91505859 141.7538916 -14.82714844 141.19848633 C-22.26633789 136.65180078 -29.64128141 132.00357881 -37 127.328125 C-50.93097773 118.47958474 -64.95765597 109.78312558 -79.01953125 101.14453125 C-82.25854085 99.15234625 -85.49714653 97.15950814 -88.73535156 95.16601562 C-90.96854142 93.79143846 -93.2022496 92.41773343 -95.43652344 91.04492188 C-98.76014809 89.00170709 -102.07753324 86.94848744 -105.39453125 84.89453125 C-106.40515625 84.27449219 -107.41578125 83.65445313 -108.45703125 83.015625 C-109.39289063 82.43425781 -110.32875 81.85289062 -111.29296875 81.25390625 C-112.11200684 80.74827148 -112.93104492 80.24263672 -113.77490234 79.72167969 C-116.13226438 78.06532133 -118.04495964 76.23618574 -120.01953125 74.14453125 C-110.34402327 67.50259838 -100.44052642 61.27994561 -90.42868042 55.1578064 C-83.63505596 51.00232787 -76.87211503 46.81597006 -70.20703125 42.45703125 C-63.19529645 37.87190663 -56.09164173 33.448506 -48.96020508 29.05224609 C-43.08406676 25.42799285 -37.23007033 21.7712696 -31.39453125 18.08203125 C-30.62810303 17.60040527 -29.8616748 17.1187793 -29.07202148 16.62255859 C-24.95326894 14.02858028 -20.87111789 11.39043534 -16.8203125 8.69140625 C-15.53664795 7.84848022 -15.53664795 7.84848022 -14.22705078 6.98852539 C-12.58720552 5.91059959 -10.95607555 4.81925699 -9.33544922 3.71264648 C-6.08446171 1.59146742 -3.92347464 0.18779892 0 0 Z " fill="#11172A" transform="translate(449.01953125,336.85546875)"/>
  <path d="M0 0 C1.73073941 0.93385297 3.46022996 1.87002069 5.18920898 2.80712891 C6.1524559 3.32820221 7.11570282 3.84927551 8.10813904 4.38613892 C12.54775014 6.86375305 16.79852331 9.60946989 21.0625 12.375 C29.27879638 17.65386766 37.54873654 22.83386526 45.875 27.9375 C57.28500792 34.93524479 68.64634888 42.00730994 79.98828125 49.11474609 C83.10468699 51.06553121 86.22383778 53.01185954 89.34375 54.95703125 C90.39546387 55.6130835 91.44717773 56.26913574 92.53076172 56.94506836 C94.50593212 58.17701739 96.48147972 59.408362 98.45751953 60.63891602 C100.26776342 61.76876229 102.06040711 62.92744379 103.83163452 64.11752319 C106.96140503 66.1222883 106.96140503 66.1222883 110.57824707 67.2313385 C115.0095332 68.92301287 118.41612115 70.92265063 121 75 C123.52719071 84.20038002 122.67275236 94.30868679 122.41951513 103.77876019 C122.33160257 107.62209893 122.32374332 111.46561018 122.30715942 115.30979919 C122.26375566 122.57828118 122.14903797 129.8437922 122.00826657 137.11096948 C121.85142346 145.38871292 121.77472057 153.66660331 121.70453048 161.94546425 C121.55844731 178.96535749 121.31243194 195.98236403 121 213 C117.44685878 211.61747838 114.33153839 210.09006984 111.10546875 208.05078125 C110.16251953 207.4578125 109.21957031 206.86484375 108.24804688 206.25390625 C107.23806641 205.61324219 106.22808594 204.97257813 105.1875 204.3125 C103.01439037 202.9439033 100.84121138 201.57541674 98.66796875 200.20703125 C97.55856934 199.50658691 96.44916992 198.80614258 95.30615234 198.08447266 C90.21392289 194.87390885 85.10677338 191.6873586 80 188.5 C73.92761079 184.70643454 67.85652579 180.91081484 61.7890625 177.109375 C52.78072373 171.46788242 43.76861303 165.83628158 34.6875 160.3125 C28.36542871 156.46453249 22.0760615 152.56755556 15.8125 148.625 C15.03414795 148.13684814 14.2557959 147.64869629 13.45385742 147.14575195 C12.71240479 146.67741943 11.97095215 146.20908691 11.20703125 145.7265625 C10.5622583 145.32002441 9.91748535 144.91348633 9.25317383 144.49462891 C8.13785278 143.7547876 8.13785278 143.7547876 7 143 C6.43129496 142.74444934 5.86258991 142.48889868 5.27665138 142.22560406 C3.02718582 141.0311524 1.62133603 139.97991432 0 138 C-1.052639 133.60350679 -0.88369616 129.26512469 -0.79467773 124.7644043 C-0.79270214 123.40407921 -0.79381366 122.04374666 -0.79777527 120.6834259 C-0.79978171 116.99723266 -0.7586648 113.31263767 -0.70975757 109.62681556 C-0.66596217 105.77251807 -0.66188368 101.91818284 -0.65357971 98.06367493 C-0.63183314 90.76779921 -0.57440488 83.47265878 -0.50413328 76.17710668 C-0.42585842 67.87011864 -0.38739559 59.56309526 -0.35226524 51.25583017 C-0.27912061 34.17012831 -0.15601726 17.08514193 0 0 Z " fill="#11172A" transform="translate(317,432)"/>
  <path d="M0 0 C74.11864407 0 74.11864407 0 86.27734375 11.07421875 C92.82364544 18.04668113 95.52568319 24.43776514 95.4375 33.9375 C95.45748047 34.69740234 95.47746094 35.45730469 95.49804688 36.24023438 C95.49228122 42.99181157 93.38044929 47.86490944 89.32421875 53.20703125 C85.45607667 57.00131859 82.13261223 59.2192978 77 61 C78.65406724 62.10271149 80.31740122 63.19314725 82.015625 64.2265625 C89.19968015 68.72287674 95.91438221 74.25406387 98.56640625 82.60546875 C100.42559546 92.87288302 99.22378592 102.03002607 94.3125 111.125 C84.5484492 123.26409018 73.60644939 125.53190013 58 129 C38.86 129 19.72 129 0 129 C0 86.43 0 43.86 0 0 Z " fill="#00C7BD" transform="translate(676,355)"/>
  <path d="M0 0 C16.16088588 13.90915142 28.47286065 33.24181282 31.25 54.6875 C33.17116825 80.69281586 28.76192863 104.98335558 11.49731445 125.2644043 C-1.64382823 140.08881024 -21.52715961 150.93895271 -41.46484375 152.58984375 C-42.21894531 152.62207031 -42.97304688 152.65429688 -43.75 152.6875 C-45.45349609 152.78224609 -45.45349609 152.78224609 -47.19140625 152.87890625 C-67.48192004 153.4937703 -85.55631592 146.89192579 -101.75 134.6875 C-102.62978516 134.03587891 -102.62978516 134.03587891 -103.52734375 133.37109375 C-119.65024753 120.5385785 -129.66574703 99.9881848 -132.46875 79.828125 C-134.67900024 55.14699732 -128.89607072 32.65409136 -113.4375 13.0625 C-84.96336757 -20.62320409 -35.09195961 -27.70160271 0 0 Z M-54.75 14.6875 C-55.80058594 15.01492188 -56.85117187 15.34234375 -57.93359375 15.6796875 C-66.6037022 18.7689069 -72.45925076 24.22745298 -78.75 30.6875 C-79.51570312 31.46738281 -80.28140625 32.24726562 -81.0703125 33.05078125 C-95.79790175 48.81434161 -99.37698865 66.54116977 -99.0859375 87.4453125 C-98.56662936 101.81856005 -91.83607275 113.03010227 -81.625 122.9375 C-66.51809822 135.60025588 -48.56248478 137.92851927 -29.47949219 136.94189453 C-23.64951898 136.39852851 -18.86157753 134.55728567 -13.75 131.6875 C-12.82703125 131.19121094 -11.9040625 130.69492187 -10.953125 130.18359375 C6.6959451 119.83844673 17.51731714 105.12563053 23.25 85.6875 C23.61738281 84.57568359 23.61738281 84.57568359 23.9921875 83.44140625 C28.24981875 68.48137316 25.4037479 50.98542697 18.25 37.5 C9.85242524 24.23218999 -1.14431715 15.62530561 -16.5 11.8125 C-30.06415147 9.32051618 -41.66351261 10.3108453 -54.75 14.6875 Z " fill="#00C6BD" transform="translate(596.75,507.3125)"/>
  <path d="M0 0 C7.09751958 5.31787446 12.10230921 11.04627473 16 19 C16.4125 19.74894531 16.825 20.49789063 17.25 21.26953125 C22.33915735 32.20768542 21.86321631 48.4869997 18.375 59.875 C16.25433484 65.04130129 13.35125887 69.55313727 10 74 C9.4225 74.86625 8.845 75.7325 8.25 76.625 C0.04994822 85.28061021 -11.74120869 90.88133799 -23.7109375 91.2734375 C-38.14326966 91.6407408 -50.52718334 90.81205749 -61.9765625 80.9375 C-73.41143885 69.98827477 -78.74051516 58.75987904 -79.33447266 42.89941406 C-79.5949575 28.68259093 -75.66834375 16.33825482 -65.8984375 5.71484375 C-48.28549524 -10.93343207 -20.3680522 -13.04726667 0 0 Z " fill="#00C7BD" transform="translate(909,394)"/>
  <path d="M0 0 C9.69695023 9.06108464 14.75255468 21.01662708 15.22045898 34.12792969 C15.36968836 47.37357843 12.93261799 58.15711284 4.75 68.8125 C4.1725 69.67875 3.595 70.545 3 71.4375 C-4.44901692 79.30035119 -15.43867139 85.21639534 -26.3972168 85.95776367 C-28.91077924 85.98255541 -31.42380622 85.99815847 -33.9375 86 C-34.79794922 86.01224609 -35.65839844 86.02449219 -36.54492188 86.03710938 C-50.36528704 86.06835361 -60.93136714 81.75151491 -70.9921875 72.1953125 C-81.65507536 60.94209175 -84.79492574 47.35235562 -84.5234375 32.2421875 C-83.9744593 19.58307625 -78.15780867 8.25105134 -69.125 -0.5 C-49.06327653 -17.1724562 -19.9690551 -15.98290975 0 0 Z " fill="#00C7BD" transform="translate(845.25,546.1875)"/>
  <path d="M0 0 C9.21707809 7.607747 15.96011844 17.15984287 18.4609375 29.03125 C19.85850601 46.12581264 18.53376752 59.62812707 7.7578125 73.5234375 C0.21237378 81.76182468 -10.55308066 88.29659972 -21.89819336 89.22412109 C-39.76596847 89.77657737 -52.60449109 88.3844309 -66.5390625 76.03125 C-76.82102304 64.99956317 -80.38242689 51.08548784 -79.88671875 36.32421875 C-79.07959114 23.41885576 -74.11276654 12.67093414 -64.5390625 4.03125 C-64.05050781 3.55042969 -63.56195312 3.06960938 -63.05859375 2.57421875 C-46.42203355 -13.03490543 -18.1783621 -12.88316353 0 0 Z " fill="#00C7BD" transform="translate(1097.5390625,542.96875)"/>
  <path d="M0 0 C8.25 0 16.5 0 25 0 C25.33 24.09 25.66 48.18 26 73 C36.0048379 61.48864621 36.0048379 61.48864621 45.7265625 49.77734375 C48.91445676 45.88285437 52.18084971 42.05608888 55.45947266 38.23779297 C57.99480291 35.30159508 57.99480291 35.30159508 60 32 C70.23 32 80.46 32 91 32 C89.47379878 35.05240244 88.43150754 36.86371416 86.27734375 39.3203125 C85.74318848 39.93318115 85.2090332 40.5460498 84.65869141 41.17749023 C84.09069824 41.82016846 83.52270508 42.46284668 82.9375 43.125 C82.35403809 43.79152588 81.77057617 44.45805176 81.16943359 45.14477539 C77.14471558 49.73251105 73.07793128 54.28180536 68.98046875 58.8046875 C66.54774252 61.50131894 64.15898195 64.23432002 61.7734375 66.97265625 C58.53952142 70.66957793 55.267917 74.33314248 52 78 C58.52468081 86.84786261 65.45781859 95.35528394 72.42578125 103.85546875 C75.58340823 107.70972423 78.73017479 111.57279611 81.875 115.4375 C82.43469482 116.12408691 82.99438965 116.81067383 83.57104492 117.51806641 C91 126.65289628 91 126.65289628 91 129 C64.92694976 131.68106463 64.92694976 131.68106463 57.31884766 127.54101562 C53.01529092 123.78753757 50.11321775 119.16730371 47.30859375 114.23583984 C45.39066428 110.9588999 43.06111755 108.07838046 40.6875 105.125 C39.51960938 103.58972656 39.51960938 103.58972656 38.328125 102.0234375 C32.47560688 94.23857901 32.47560688 94.23857901 26 87 C25.67 100.86 25.34 114.72 25 129 C16.75 129 8.5 129 0 129 C0 86.43 0 43.86 0 0 Z " fill="#00C5BB" transform="translate(1047,355)"/>
  <path d="M0 0 C7.10603012 5.62050227 10.00522134 11.91154416 12 20.55859375 C8.75505307 21.59599345 5.50340596 22.61056614 2.25 23.62109375 C1.32960938 23.91564453 0.40921875 24.21019531 -0.5390625 24.51367188 C-1.87324219 24.92456055 -1.87324219 24.92456055 -3.234375 25.34375 C-4.05131836 25.600354 -4.86826172 25.85695801 -5.70996094 26.12133789 C-8.24064295 26.60454167 -9.62381482 26.53527856 -12 25.55859375 C-13.3540932 23.57259038 -14.68457624 21.57041832 -16 19.55859375 C-21.07793921 14.70143451 -25.39535184 12.55472427 -32.375 12.18359375 C-38.63464171 12.34166551 -42.99316788 14.91664019 -47.75 18.80859375 C-53.90136067 26.32692346 -55.75549369 33.98442827 -55 43.55859375 C-53.46789165 51.67756162 -50.49870376 57.89957889 -43.875 62.93359375 C-37.45488498 66.56235441 -29.73660611 66.70592223 -22.61328125 64.98046875 C-16.7919643 62.46437891 -13.49814845 57.67463585 -10 52.55859375 C-6.72894132 53.53700871 -3.45819243 54.51645524 -0.1875 55.49609375 C0.74126953 55.77388672 1.67003906 56.05167969 2.62695312 56.33789062 C3.51962891 56.60537109 4.41230469 56.87285156 5.33203125 57.1484375 C6.15421143 57.39456787 6.9763916 57.64069824 7.82348633 57.89428711 C9.55703226 58.42339294 11.28051722 58.98543282 13 59.55859375 C10.6277401 69.11541222 5.99992615 75.83010837 -2.1875 81.37109375 C-15.68719464 89.19436692 -30.61510046 90.90214095 -45.95703125 87.8984375 C-57.98770874 84.60177498 -68.24292128 76.79676392 -74.5 65.9609375 C-81.19559656 52.11141485 -83.28423388 37.37543839 -79.04296875 22.44140625 C-74.58326866 10.11459476 -67.32903195 1.10895225 -56 -5.44140625 C-36.91414836 -14.01320665 -16.86037013 -12.15132144 0 0 Z " fill="#00C7BE" transform="translate(1021,396.44140625)"/>
  <path d="M0 0 C8.58 0 17.16 0 26 0 C26 33.66 26 67.32 26 102 C42.83 102 59.66 102 77 102 C77 110.25 77 118.5 77 127 C51.59 127 26.18 127 0 127 C0 85.09 0 43.18 0 0 Z " fill="#00C8BE" transform="translate(676,504)"/>
  <path d="M0 0 C7.92 0 15.84 0 24 0 C24 7.59 24 15.18 24 23 C32.91 23 41.82 23 51 23 C51 30.26 51 37.52 51 45 C42.09 45 33.18 45 24 45 C24.09701308 51.03268171 24.19979351 57.064689 24.31738281 63.09692383 C24.35562625 65.14829534 24.39048719 67.19973284 24.421875 69.2512207 C24.46762602 72.20287638 24.52560422 75.15407953 24.5859375 78.10546875 C24.59748871 79.02023483 24.60903992 79.93500092 24.62094116 80.87748718 C24.74766183 88.53886099 24.74766183 88.53886099 28.81347656 94.79418945 C31.41983676 96.231529 33.02184074 96.34716145 35.984375 96.29296875 C37.24846191 96.28172974 37.24846191 96.28172974 38.53808594 96.27026367 C39.59801758 96.24295166 40.65794922 96.21563965 41.75 96.1875 C45.1325 96.125625 48.515 96.06375 52 96 C52 102.93 52 109.86 52 117 C45.14358153 119.28547282 40.48584464 120.52563709 33.5625 120.4375 C32.31690308 120.42722778 32.31690308 120.42722778 31.04614258 120.41674805 C21.83737824 120.1758132 14.50542611 117.80112729 8 111 C1.34113563 101.58795132 -0.30825237 93.92916142 -0.1953125 82.59765625 C-0.1924826 81.51995468 -0.18965271 80.44225311 -0.18673706 79.33189392 C-0.17559193 75.90864701 -0.15049756 72.48566709 -0.125 69.0625 C-0.11496289 66.73372775 -0.10583832 64.40495138 -0.09765625 62.07617188 C-0.07567111 56.38401259 -0.04118018 50.69205148 0 45 C-4.95 45 -9.9 45 -15 45 C-15 37.74 -15 30.48 -15 23 C-10.05 23 -5.1 23 0 23 C0 15.41 0 7.82 0 0 Z " fill="#00C7BD" transform="translate(881,512)"/>
  <path d="M0 0 C7.92 0 15.84 0 24 0 C24 7.59 24 15.18 24 23 C33.24 23 42.48 23 52 23 C52 29.93 52 36.86 52 44 C42.76 44 33.52 44 24 44 C24.07408962 50.15710255 24.15700262 56.31277653 24.26245117 62.46923828 C24.29564549 64.56226124 24.32369445 66.65537253 24.34643555 68.74853516 C24.38008231 71.76242612 24.43240393 74.77551163 24.48828125 77.7890625 C24.49467117 78.72054108 24.5010611 79.65201965 24.50764465 80.61172485 C24.62396144 85.78558805 25.04477223 89.5608391 28 94 C31.71769452 96.47846301 34.58068272 96.26100633 38.875 96.1875 C39.58269531 96.18685547 40.29039062 96.18621094 41.01953125 96.18554688 C44.87987606 96.15319762 48.18095236 95.76380953 52 95 C52 102.26 52 109.52 52 117 C44.88688433 119.66741838 41.20500552 120.4973382 34.0625 120.4375 C33.22009766 120.45748047 32.37769531 120.47746094 31.50976562 120.49804688 C22.34257037 120.49098976 15.4349875 117.11767759 8.7890625 110.921875 C0.89464468 102.4414087 -0.30686142 93.78960469 -0.1953125 82.59765625 C-0.1924826 81.51995468 -0.18965271 80.44225311 -0.18673706 79.33189392 C-0.17559193 75.90864701 -0.15049756 72.48566709 -0.125 69.0625 C-0.11496289 66.73372775 -0.10583832 64.40495138 -0.09765625 62.07617188 C-0.07567111 56.38401259 -0.04118018 50.69205148 0 45 C-4.95 45 -9.9 45 -15 45 C-15 37.74 -15 30.48 -15 23 C-10.05 23 -5.1 23 0 23 C0 15.41 0 7.82 0 0 Z " fill="#00C7BD" transform="translate(957,512)"/>
  <path d="M0 0 C7.92 0 15.84 0 24 0 C24 42.57 24 85.14 24 129 C16.08 129 8.16 129 0 129 C0 86.43 0 43.86 0 0 Z " fill="#00C4BB" transform="translate(791,355)"/>
  <path d="M0 0 C5.57601558 4.25126026 9.32065368 9.73361179 10.42382812 16.73876953 C11.44111863 26.68535082 10.45528455 35.67980343 4.12109375 43.81640625 C-2.67479286 49.826374 -8.65112201 51.18907607 -17.58203125 51.08984375 C-23.81701171 50.57272452 -27.86036572 48.17178502 -32.12890625 43.69140625 C-38.42224999 35.57540011 -40.1125202 26.93967124 -38.87890625 16.81640625 C-36.85180294 8.99586566 -31.68418113 2.55974396 -25.19140625 -2.12109375 C-16.75406174 -5.9977115 -7.7349646 -4.87254527 0 0 Z " fill="#11172A" transform="translate(893.87890625,412.18359375)"/>
  <path d="M0 0 C5.95658936 4.19890725 10.79231629 9.06173167 12.5703125 16.33203125 C14.05835863 25.57144497 13.51032314 33.11875468 8.92578125 41.390625 C5.48441477 46.05357187 1.0845124 48.4577438 -4 51 C-12.50551478 51.77680424 -20.27108569 52.42504977 -27.234375 46.77734375 C-34.44179417 39.52208772 -36.45127303 32.26223157 -36.43383789 22.11962891 C-36.21301784 14.13528899 -33.5519389 8.12100091 -27.75 2.5625 C-19.4804854 -3.7834536 -9.21425441 -4.9669219 0 0 Z " fill="#111729" transform="translate(822,559)"/>
  <path d="M0 0 C6.49956422 3.80934724 10.22681792 9.83187573 12.703125 16.8125 C14.6457365 24.42106173 13.73095974 32.30248454 10.359375 39.3828125 C7.16987319 44.02339396 3.13449349 49.17492845 -2.40234375 51.0078125 C-10.01039165 52.28245927 -18.00754419 53.0611216 -24.765625 48.8203125 C-30.43102114 44.28586173 -33.71640922 39.37691854 -35.640625 32.3828125 C-36.58110962 22.9185673 -36.61188224 14.27931137 -30.640625 6.3828125 C-22.15088701 -3.07487662 -11.45710731 -5.08809424 0 0 Z " fill="#111729" transform="translate(1078.640625,558.6171875)"/>
  <path d="M0 0 C5.69952095 2.43474681 8.90194378 6.9705619 11.57421875 12.421875 C12.30933877 15.88872299 12.2824637 19.17568699 12.16015625 22.70703125 C12.15166656 23.64872665 12.14317688 24.59042206 12.13442993 25.56065369 C12.10113285 28.53644548 12.02590161 31.50941759 11.94921875 34.484375 C11.91908839 36.51493452 11.891718 38.54553698 11.8671875 40.57617188 C11.80141966 45.52580802 11.69806645 50.47336534 11.57421875 55.421875 C7.28421875 55.421875 2.99421875 55.421875 -1.42578125 55.421875 C-1.42989014 54.32721924 -1.43399902 53.23256348 -1.43823242 52.10473633 C-1.46005177 48.03215855 -1.51436956 43.96054309 -1.57836914 39.88842773 C-1.60152489 38.12810509 -1.61593919 36.36764439 -1.62133789 34.60717773 C-1.63064567 32.07188121 -1.67167173 29.53874872 -1.71875 27.00390625 C-1.71481735 26.22038284 -1.7108847 25.43685944 -1.70683289 24.6295929 C-1.81916983 20.39537417 -2.07644943 18.85369334 -4.84106445 15.4362793 C-8.67221443 12.45046476 -10.59314613 12.421875 -15.42578125 12.421875 C-18.3973816 13.77847516 -20.12861566 15.12470941 -22.42578125 17.421875 C-22.67159968 20.28624324 -22.79947506 23.0609064 -22.83984375 25.9296875 C-22.8592099 26.77030731 -22.87857605 27.61092712 -22.89852905 28.47702026 C-22.95839783 31.16686803 -23.00473896 33.85675843 -23.05078125 36.546875 C-23.08895435 38.36850844 -23.12800569 40.1901237 -23.16796875 42.01171875 C-23.26410523 46.48162352 -23.34810894 50.95161279 -23.42578125 55.421875 C-28.37578125 55.421875 -33.32578125 55.421875 -38.42578125 55.421875 C-38.42578125 37.271875 -38.42578125 19.121875 -38.42578125 0.421875 C-33.80578125 0.421875 -29.18578125 0.421875 -24.42578125 0.421875 C-24.09578125 2.071875 -23.76578125 3.721875 -23.42578125 5.421875 C-22.47703125 4.6175 -21.52828125 3.813125 -20.55078125 2.984375 C-14.72569749 -1.95428297 -7.30492196 -1.74094759 0 0 Z " fill="#8D93A1" transform="translate(820.42578125,681.578125)"/>
  <path d="M0 0 C4.62 0 9.24 0 14 0 C14.01458252 1.06436279 14.02916504 2.12872559 14.04418945 3.2253418 C14.1022978 7.18596469 14.17952945 11.14602648 14.26245117 15.10620117 C14.29564169 16.81802238 14.32369189 18.52995148 14.34643555 20.24194336 C14.38009032 22.70733479 14.43240974 25.17174281 14.48828125 27.63671875 C14.49467117 28.39836838 14.5010611 29.16001801 14.50764465 29.94474792 C14.6312449 34.44293556 15.20720447 37.42393767 18 41 C20.40513021 42.20256511 22.12853564 42.2703777 24.8125 42.375 C25.66457031 42.42398438 26.51664063 42.47296875 27.39453125 42.5234375 C31.25751774 41.74736525 32.57071272 40.06412973 35 37 C35.72377475 34.13704091 35.72179956 31.3603427 35.70703125 28.41796875 C35.72215256 27.60378983 35.73727386 26.7896109 35.75285339 25.95075989 C35.79567437 23.36272364 35.80456247 20.77585495 35.8125 18.1875 C35.83564883 16.42770346 35.86101498 14.66793459 35.88867188 12.90820312 C35.95146832 8.60536581 35.98384735 4.303255 36 0 C40.62 0 45.24 0 50 0 C50 18.15 50 36.3 50 55 C45.71 55 41.42 55 37 55 C36.67 53.35 36.34 51.7 36 50 C34.6078125 51.2065625 34.6078125 51.2065625 33.1875 52.4375 C28.41396242 56.5745659 23.48376875 56.46945596 17.3671875 56.39453125 C11.23113553 55.67557389 7.37479575 52.92766866 3.52661133 48.18359375 C-1.7316089 39.31130451 -0.54390471 29.32103622 -0.3125 19.375 C-0.28738118 17.49351928 -0.26457435 15.61200619 -0.24414062 13.73046875 C-0.18943969 9.15283737 -0.10336718 4.5767805 0 0 Z " fill="#8F95A3" transform="translate(721,682)"/>
  <path d="M0 0 C1.25425781 0.01804687 2.50851562 0.03609375 3.80078125 0.0546875 C5.22970703 0.08949219 5.22970703 0.08949219 6.6875 0.125 C6.6875 4.085 6.6875 8.045 6.6875 12.125 C4.58375 12.24875 4.58375 12.24875 2.4375 12.375 C-0.52559402 12.73373937 -2.19515726 13.05752793 -4.8125 14.5625 C-7.17762321 18.60291881 -7.06791774 22.47793707 -7.3125 27.125 C-3.0225 27.125 1.2675 27.125 5.6875 27.125 C5.6875 31.085 5.6875 35.045 5.6875 39.125 C1.3975 39.125 -2.8925 39.125 -7.3125 39.125 C-7.3125 53.315 -7.3125 67.505 -7.3125 82.125 C-11.9325 82.125 -16.5525 82.125 -21.3125 82.125 C-21.3125 67.935 -21.3125 53.745 -21.3125 39.125 C-24.6125 39.125 -27.9125 39.125 -31.3125 39.125 C-31.3125 35.165 -31.3125 31.205 -31.3125 27.125 C-28.0125 27.125 -24.7125 27.125 -21.3125 27.125 C-21.35890625 26.36316406 -21.4053125 25.60132813 -21.453125 24.81640625 C-21.70093276 17.72733417 -21.25802944 12.1585856 -17.3125 6.125 C-12.10782299 0.92032299 -7.2202838 -0.13495858 0 0 Z " fill="#8D93A1" transform="translate(708.3125,654.875)"/>
  <path d="M0 0 C5.28 -0.061875 10.56 -0.12375 16 -0.1875 C17.65 -0.21481201 19.3 -0.24212402 21 -0.27026367 C37.37447793 -0.4311844 37.37447793 -0.4311844 42.53491211 4.45263672 C46.46038924 8.95822353 47.29850151 11.83550701 47.21484375 17.6171875 C46.78177703 22.42029115 45.0956276 25.84176511 41.8125 29.3125 C33.62984874 34.22209075 24.19932318 33.23337401 15 33.125 C10.05 33.08375 5.1 33.0425 0 33 C0 22.11 0 11.22 0 0 Z " fill="#111729" transform="translate(702,429)"/>
  <path d="M0 0 C7.6725 -0.12375 7.6725 -0.12375 15.5 -0.25 C17.09779297 -0.28641602 18.69558594 -0.32283203 20.34179688 -0.36035156 C27.83873344 -0.41889187 33.62788964 -0.37833365 40 4 C44.0654951 8.27398203 45.43162077 11.85144288 45.34375 17.8046875 C44.70754656 21.86771404 42.68632438 24.94799796 40 28 C34.28228199 31.69269288 28.84942071 32.12708996 22.16796875 32.09765625 C21.00289795 32.09515869 19.83782715 32.09266113 18.63745117 32.09008789 C16.43472534 32.07643188 16.43472534 32.07643188 14.1875 32.0625 C9.505625 32.041875 4.82375 32.02125 0 32 C0 21.44 0 10.88 0 0 Z " fill="#111729" transform="translate(701,377)"/>
  <path d="M0 0 C5.11181507 4.23550391 7.0883701 8.33408341 8.1875 14.8125 C8.48042552 18.52554758 8.51256148 22.21427874 8.5 25.9375 C8.51611328 26.90042969 8.53222656 27.86335937 8.54882812 28.85546875 C8.55254679 34.26240154 8.26611162 38.16512218 5.1875 42.8125 C0.43018661 47.3258486 -3.3014599 48.22907514 -9.83984375 48.16796875 C-13.26948598 47.54995401 -14.80964254 45.50383971 -16.8125 42.8125 C-16.8125 41.8225 -16.8125 40.8325 -16.8125 39.8125 C-15.82507813 39.76351562 -14.83765625 39.71453125 -13.8203125 39.6640625 C-12.53898438 39.58929687 -11.25765625 39.51453125 -9.9375 39.4375 C-8.02324219 39.33308594 -8.02324219 39.33308594 -6.0703125 39.2265625 C-2.73188301 39.14008894 -2.73188301 39.14008894 -0.8125 36.8125 C-0.64572718 33.22906024 -0.64572718 33.22906024 -0.8125 29.8125 C-1.34875 30.1425 -1.885 30.4725 -2.4375 30.8125 C-5.51590819 32.10867187 -7.48966638 32.21124003 -10.8125 31.8125 C-16.10562097 29.0600771 -19.3373591 25.50035225 -21.5625 19.9375 C-22.31020839 13.58197868 -22.31711846 9.31975759 -18.8125 3.8125 C-13.88373261 -1.88638729 -6.91042178 -2.91773364 0 0 Z " fill="#00C7BE" transform="translate(535.8125,562.1875)"/>
  <path d="M0 0 C4.83655023 2.41827511 7.36498898 5.31553596 10 10 C11.68719347 15.24710893 11.26574305 20.86063927 11.3125 26.3125 C11.34150391 27.42818359 11.37050781 28.54386719 11.40039062 29.69335938 C11.45168381 36.34963595 11.19431601 40.70530125 7 46 C2.49287483 49.62352073 -1.64402695 49.55652028 -7.23828125 49.42578125 C-10 49 -10 49 -12.75 46.6875 C-14 44 -14 44 -14 41 C-13.16855469 41.01160156 -12.33710937 41.02320313 -11.48046875 41.03515625 C-9.85044922 41.04869141 -9.85044922 41.04869141 -8.1875 41.0625 C-6.56908203 41.07990234 -6.56908203 41.07990234 -4.91796875 41.09765625 C-1.93487831 41.13624766 -1.93487831 41.13624766 1 40 C2.35439668 37.29120665 2.06501451 34.99066732 2 32 C1.01 32.495 1.01 32.495 0 33 C-4.7414952 33.51191364 -8.7074005 33.71505504 -12.9375 31.375 C-18.03639936 25.50354014 -18.69451006 19.98894137 -18.55859375 12.43359375 C-17.70931206 7.21318392 -15.1921881 4.11496632 -11 1 C-7.26947433 -0.24350856 -3.87447957 -0.52198871 0 0 Z " fill="#00C9BF" transform="translate(597,553)"/>
  <path d="M0 0 C3.99563078 2.21034894 5.84533316 4.75461064 7.44140625 9.046875 C8.48111564 12.68222252 8.82128382 16.24696027 9 20 C9.06445312 21.27101563 9.12890625 22.54203125 9.1953125 23.8515625 C9.45894519 31.43388724 9.52927847 37.58352216 5 44 C0.75931282 48.10816571 -4.19285288 48.35057571 -9.875 48.28515625 C-12 48 -12 48 -14.5 46.25 C-15.95960411 44.06059384 -16.44770721 42.52780161 -17 40 C-16.18015625 40.02320313 -15.3603125 40.04640625 -14.515625 40.0703125 C-13.43796875 40.08835937 -12.3603125 40.10640625 -11.25 40.125 C-10.18265625 40.14820313 -9.1153125 40.17140625 -8.015625 40.1953125 C-5.02634511 40.00170629 -3.38355139 39.79890671 -1 38 C-0.30367785 36.04634555 -0.30367785 36.04634555 -0.25 33.875 C-0.1675 32.59625 -0.085 31.3175 0 30 C-0.99 30.66 -1.98 31.32 -3 32 C-7.71218117 32.46349323 -10.04345429 32.46924884 -14.3125 30.375 C-19.2123805 26.04487304 -20.70710667 21.04609064 -21.3125 14.75 C-20.8551097 9.26131641 -18.98237494 4.862231 -14.9375 1.0625 C-9.94717791 -1.67412824 -5.41601366 -1.10053398 0 0 Z " fill="#00C6BD" transform="translate(568,558)"/>
  <path d="M0 0 C7.92 0 15.84 0 24 0 C24 42.57 24 85.14 24 129 C16.08 129 8.16 129 0 129 C0 86.43 0 43.86 0 0 Z M1 2 C1 43.25 1 84.5 1 127 C7.93 127 14.86 127 22 127 C22 85.75 22 44.5 22 2 C15.07 2 8.14 2 1 2 Z " fill="#00D3C8" transform="translate(791,355)"/>
  <path d="M0 0 C7.92 0 15.84 0 24 0 C24 24.42 24 48.84 24 74 C23.67 74 23.34 74 23 74 C23 49.91 23 25.82 23 1 C16.07 1 9.14 1 2 1 C2 42.25 2 83.5 2 126 C9.59 126 17.18 126 25 126 C25 126.66 25 127.32 25 128 C16.75 128 8.5 128 0 128 C0 85.76 0 43.52 0 0 Z " fill="#00D5C9" transform="translate(1047,356)"/>
  <path d="M0 0 C2.12327857 1.80156969 3.0820412 3.16515408 4.0625 5.75 C1.7525 4.43 -0.5575 3.11 -2.9375 1.75 C-2.9375 2.74 -2.9375 3.73 -2.9375 4.75 C-3.57558594 5.01554688 -4.21367188 5.28109375 -4.87109375 5.5546875 C-5.69738281 5.90789063 -6.52367187 6.26109375 -7.375 6.625 C-8.19871094 6.97304688 -9.02242187 7.32109375 -9.87109375 7.6796875 C-12.09496715 8.5744937 -12.09496715 8.5744937 -12.9375 10.75 C-13.21950252 14.48653345 -13.1587379 17.17232327 -11.8125 20.6875 C-10.05730797 23.0568436 -10.05730797 23.0568436 -6.9375 23.1875 C-3.76329043 22.94356618 -3.76329043 22.94356618 -0.9375 20.75 C-0.57289547 18.08346095 -0.57289547 18.08346095 -0.75 15.125 C-0.77707031 14.12210938 -0.80414062 13.11921875 -0.83203125 12.0859375 C-0.88423828 10.92964844 -0.88423828 10.92964844 -0.9375 9.75 C1.0625 11.75 1.0625 11.75 1.2578125 14.1328125 C1.23460937 15.03773438 1.21140625 15.94265625 1.1875 16.875 C1.16042969 18.24011719 1.16042969 18.24011719 1.1328125 19.6328125 C1.10960937 20.33148437 1.08640625 21.03015625 1.0625 21.75 C-0.9175 22.74 -0.9175 22.74 -2.9375 23.75 C-2.6075 26.06 -2.2775 28.37 -1.9375 30.75 C-6.61851678 31.70700787 -9.83165235 32.27162625 -14.25 30.1875 C-19.70800947 25.23721234 -21.72586136 21.03039884 -22.1875 13.875 C-22.11109573 8.73681311 -20.28327849 5.30605638 -16.9375 1.4375 C-12.2775669 -2.49431856 -5.39928357 -2.29756748 0 0 Z " fill="#00CCC2" transform="translate(535.9375,562.25)"/>
  <path d="M0 0 C0.99 0.33 1.98 0.66 3 1 C3 46.54 3 92.08 3 139 C-0.74021591 137.50391364 -3.55953747 136.15892382 -6.89453125 134.05078125 C-8.31016357 133.16060303 -8.31016357 133.16060303 -9.75439453 132.25244141 C-10.76356934 131.61226074 -11.77274414 130.97208008 -12.8125 130.3125 C-14.97256388 128.95167628 -17.1327229 127.59100358 -19.29296875 126.23046875 C-20.40075684 125.53099121 -21.50854492 124.83151367 -22.64990234 124.11083984 C-26.94300031 121.40583146 -31.24889366 118.72164407 -35.55541992 116.03808594 C-45.08511865 110.09879386 -54.58348766 104.11741735 -64 98 C-63.01 97.505 -63.01 97.505 -62 97 C-59.68774414 98.16479492 -59.68774414 98.16479492 -56.78515625 99.98046875 C-55.71587891 100.64409424 -54.64660156 101.30771973 -53.54492188 101.99145508 C-52.38400057 102.72328923 -51.2231959 103.45530841 -50.0625 104.1875 C-48.87476712 104.92864907 -47.68661292 105.66912334 -46.49804688 106.40893555 C-42.99175278 108.59502249 -39.49505407 110.79598549 -36 113 C-35.07687012 113.58168945 -34.15374023 114.16337891 -33.20263672 114.76269531 C-26.87433382 118.75422422 -26.87433382 118.75422422 -24.01977539 120.5769043 C-15.75244732 125.84229189 -7.36928844 130.88543484 1 136 C0.67 91.12 0.34 46.24 0 0 Z " fill="#150B1A" transform="translate(435,506)"/>
  <path d="M0 0 C0.66 0.66 1.32 1.32 2 2 C0.02 2.33 -1.96 2.66 -4 3 C-1.63379989 5.61527381 0.942048 7.26440562 4 9 C3.67 9.66 3.34 10.32 3 11 C2.34 10.34 1.68 9.68 1 9 C-2.03989923 8.67660646 -4.14368353 8.54329788 -6.875 10 C-8.66791439 13.18740336 -8.43307009 16.47154369 -8 20 C-7.13734032 22.40557853 -7.13734032 22.40557853 -6 24 C-1.99745544 24.09181134 -1.99745544 24.09181134 2 24 C3.73956658 22.26043342 3.37190386 19.8063378 3.5625 17.4375 C3.64628906 16.42558594 3.73007812 15.41367187 3.81640625 14.37109375 C3.90728516 13.19740234 3.90728516 13.19740234 4 12 C4.33 12 4.66 12 5 12 C5.24915939 13.76813112 5.47366632 15.53974982 5.6875 17.3125 C5.81511719 18.29863281 5.94273437 19.28476562 6.07421875 20.30078125 C6 23 6 23 4.64453125 24.85546875 C3 26 3 26 1 26 C1 26.66 1 27.32 1 28 C2.98 28.66 4.96 29.32 7 30 C6.77169299 31.62818946 6.51656424 33.2526349 6.25 34.875 C6.11078125 35.77992188 5.9715625 36.68484375 5.828125 37.6171875 C5 40 5 40 2.921875 41.3203125 C2.28765625 41.54460938 1.6534375 41.76890625 1 42 C1.495 41.113125 1.99 40.22625 2.5 39.3125 C3.94378674 36.12413762 4.30159922 34.41812454 4 31 C3.01 31.66 2.02 32.32 1 33 C-3.71218117 33.46349323 -6.04345429 33.46924884 -10.3125 31.375 C-15.2123805 27.04487304 -16.70710667 22.04609064 -17.3125 15.75 C-16.8551097 10.26131641 -14.98237494 5.862231 -10.9375 2.0625 C-7.22525344 0.02675189 -4.17582071 -0.26654175 0 0 Z " fill="#00CCC2" transform="translate(564,557)"/>
  <path d="M0 0 C2.93052231 1.99524923 4.64521503 3.42836485 5.4453125 6.97265625 C5.63409202 10.33922437 5.25759307 12.59815481 3.4375 15.4375 C0.11622522 17.5665223 -2.04580795 18.06817573 -6 18 C-9.27523158 16.15396038 -11.48777812 14.81838767 -12.546875 11.05859375 C-12.81667462 7.10902711 -12.21713788 5.31583691 -9.9375 2 C-6.22192774 -0.52975133 -4.4117517 -0.7878128 0 0 Z " fill="#9196A4" transform="translate(671,720)"/>
  <path d="M0 0 C3.5 0.4375 3.5 0.4375 5.375 1.75 C7.95098174 5.61397261 8.16347306 9.95204832 7.5 14.4375 C5.28300364 17.1661109 3.91355329 17.38686082 0.4375 17.8125 C-2.5 17.4375 -2.5 17.4375 -4.3125 16.125 C-6.91822278 12.42213079 -6.80718736 8.81491984 -6.5 4.4375 C-4.89019549 0.74441907 -4.04233618 0.50529202 0 0 Z " fill="#111727" transform="translate(528.5,568.5625)"/>
  <path d="M0 0 C2.21279463 2.23357205 2.94549739 3.59093739 3.36328125 6.7265625 C3.34652344 7.68304687 3.32976563 8.63953125 3.3125 9.625 C3.30863281 10.58664062 3.30476562 11.54828125 3.30078125 12.5390625 C3 15 3 15 1 17 C-2.00492736 17.33388082 -4.10640654 17.56215006 -7 17 C-9.73825505 14.26174495 -10.20656982 11.68136807 -10.4375 7.9375 C-10 4 -10 4 -8.375 1.5 C-5.29690766 -0.44405832 -3.57597151 -0.608676 0 0 Z " fill="#111525" transform="translate(565,565)"/>
  <path d="M0 0 C1.66796875 1.14453125 1.66796875 1.14453125 3 3 C3.36328125 5.84765625 3.36328125 5.84765625 3.3125 9.0625 C3.30863281 10.12597656 3.30476562 11.18945312 3.30078125 12.28515625 C3 15 3 15 1 17 C-1.68839385 17.26991906 -4.29141936 17.08737357 -7 17 C-10.2689803 11.76963152 -10.33810675 8.83032227 -9 3 C-6.79982203 -0.70556289 -4.05623513 -0.50702939 0 0 Z " fill="#121525" transform="translate(596,561)"/>
  <path d="M0 0 C0.33 0 0.66 0 1 0 C1 17.16 1 34.32 1 52 C1.66 52 2.32 52 3 52 C3.33 50.68 3.66 49.36 4 48 C3.67 57.24 3.34 66.48 3 76 C2.67 76 2.34 76 2 76 C1.67 96.13 1.34 116.26 1 137 C0.67 137 0.34 137 0 137 C0 91.79 0 46.58 0 0 Z " fill="#00E2D4" transform="translate(438,507)"/>
  <path d="M0 0 C4.72600825 4.72600825 3.18395106 13.32701436 3.1875 19.5625 C3.19974609 20.69880859 3.21199219 21.83511719 3.22460938 23.00585938 C3.22654297 24.09833984 3.22847656 25.19082031 3.23046875 26.31640625 C3.23457764 27.31099854 3.23868652 28.30559082 3.24291992 29.33032227 C2.99586767 32.04541407 2.3896576 33.68092068 1 36 C0.855625 34.865625 0.71125 33.73125 0.5625 32.5625 C0.38828522 29.19222799 0.38828522 29.19222799 -1 28 C-1.66 28.66 -2.32 29.32 -3 30 C-3.33 21.75 -3.66 13.5 -4 5 C-3.34 5 -2.68 5 -2 5 C-1.34 3.35 -0.68 1.7 0 0 Z " fill="#00D7CD" transform="translate(625,555)"/>
  <path d="M0 0 C7.92 0 15.84 0 24 0 C24 7.59 24 15.18 24 23 C33.24 23 42.48 23 52 23 C52 29.93 52 36.86 52 44 C51.67 44 51.34 44 51 44 C51 37.4 51 30.8 51 24 C41.76 24 32.52 24 23 24 C23 16.74 23 9.48 23 2 C16.07 2 9.14 2 2 2 C2 5.96 2 9.92 2 14 C1.34 14 0.68 14 0 14 C0 9.38 0 4.76 0 0 Z " fill="#01AFAA" transform="translate(957,512)"/>
  <path d="M0 0 C0.33 0 0.66 0 1 0 C1 13.2 1 26.4 1 40 C-3.29 40 -7.58 40 -12 40 C-12.33 27.13 -12.66 14.26 -13 1 C-11 2 -11 2 -10.38110352 3.60058594 C-9.85951731 6.88447399 -9.88914942 10.06565271 -9.90234375 13.390625 C-9.90446617 14.44754547 -9.90446617 14.44754547 -9.90663147 15.52581787 C-9.91221067 17.76725584 -9.92475927 20.00859243 -9.9375 22.25 C-9.94251769 23.77343605 -9.94708013 25.29687368 -9.95117188 26.8203125 C-9.96217326 30.54690772 -9.97942354 34.27344396 -10 38 C-6.7 38 -3.4 38 0 38 C0 25.46 0 12.92 0 0 Z " fill="#A0A5B2" transform="translate(831,697)"/>
  <path d="M0 0 C4.62 0 9.24 0 14 0 C14 12.21 14 24.42 14 37 C11.83320709 32.66641418 11.76562999 30.59314121 11.8046875 25.828125 C11.8075174 25.1457074 11.81034729 24.46328979 11.81326294 23.76019287 C11.82441902 21.58994693 11.84951443 19.42012029 11.875 17.25 C11.88503574 15.77474556 11.89416056 14.29948463 11.90234375 12.82421875 C11.92434313 9.21601058 11.95884117 5.60804625 12 2 C8.37 2 4.74 2 1 2 C1 13.55 1 25.1 1 37 C0.67 37 0.34 37 0 37 C0 24.79 0 12.58 0 0 Z " fill="#A5AAB6" transform="translate(721,682)"/>
  <path d="M0 0 C4.62 0 9.24 0 14 0 C14 3.96 14 7.92 14 12 C11.89625 12.12375 11.89625 12.12375 9.75 12.25 C6.78690598 12.60873937 5.11734274 12.93252793 2.5 14.4375 C0.13487679 18.47791881 0.24458226 22.35293707 0 27 C4.29 27 8.58 27 13 27 C13 30.96 13 34.92 13 39 C8.71 39 4.42 39 0 39 C0 38.67 0 38.34 0 38 C3.96 38 7.92 38 12 38 C11.67 35.03 11.34 32.06 11 29 C10.21753906 29.01160156 9.43507813 29.02320313 8.62890625 29.03515625 C7.61699219 29.04417969 6.60507812 29.05320312 5.5625 29.0625 C4.55316406 29.07410156 3.54382813 29.08570313 2.50390625 29.09765625 C0 29 0 29 -1 28 C-1.59927366 22.41819393 -1.99391954 17.61511925 1 12.75 C5.02305644 10.40321708 7.40081908 10.61023891 12 11 C12 8.03 12 5.06 12 2 C7.71 2 3.42 2 -1 2 C-0.67 1.34 -0.34 0.68 0 0 Z " fill="#9EA3AF" transform="translate(701,655)"/>
  <path d="M0 0 C0.33 0 0.66 0 1 0 C1.33 3.96 1.66 7.92 2 12 C2.33 12 2.66 12 3 12 C3.8320582 17.72040011 4.12036664 23.22240116 4 29 C3.67 29 3.34 29 3 29 C2.67 27.35 2.34 25.7 2 24 C1.67 41.16 1.34 58.32 1 76 C0.67 76 0.34 76 0 76 C0 50.92 0 25.84 0 0 Z " fill="#00CFC5" transform="translate(439,569)"/>
  <path d="M0 0 C0.01981934 1.29212402 0.03963867 2.58424805 0.06005859 3.91552734 C0.13598368 8.69779345 0.22472078 13.47975005 0.31738281 18.26171875 C0.35572685 20.33359681 0.39057005 22.40554269 0.421875 24.47753906 C0.46740809 27.45141887 0.52542118 30.42482962 0.5859375 33.3984375 C0.59748871 34.32868744 0.60903992 35.25893738 0.62094116 36.21737671 C0.64081085 37.07811798 0.66068054 37.93885925 0.68115234 38.82568359 C0.69447601 39.58513275 0.70779968 40.34458191 0.7215271 41.12704468 C0.84617052 43.2431226 0.84617052 43.2431226 3 45 C-0.875 44.125 -0.875 44.125 -2 43 C-2.08868299 40.04294679 -2.11520296 37.10934944 -2.09765625 34.15234375 C-2.09553383 32.82270348 -2.09553383 32.82270348 -2.09336853 31.46620178 C-2.08775215 28.62326746 -2.07519691 25.78041069 -2.0625 22.9375 C-2.05748711 21.01497509 -2.05292384 19.09244896 -2.04882812 17.16992188 C-2.03777741 12.44658451 -2.02050183 7.72330542 -2 3 C-3.32 3.33 -4.64 3.66 -6 4 C-2.25 0 -2.25 0 0 0 Z " fill="#120D19" transform="translate(581,432)"/>
  <path d="M0 0 C0.33 0 0.66 0 1 0 C1.24915939 1.76813112 1.47366632 3.53974982 1.6875 5.3125 C1.81511719 6.29863281 1.94273437 7.28476562 2.07421875 8.30078125 C2 11 2 11 0.64453125 12.85546875 C-1 14 -1 14 -3 14 C-3 14.66 -3 15.32 -3 16 C-1.02 16.66 0.96 17.32 3 18 C2.77169299 19.62818946 2.51656424 21.2526349 2.25 22.875 C2.11078125 23.77992188 1.9715625 24.68484375 1.828125 25.6171875 C1 28 1 28 -1.078125 29.3203125 C-2.02945313 29.65675781 -2.02945313 29.65675781 -3 30 C-2.505 29.113125 -2.01 28.22625 -1.5 27.3125 C-0.05621326 24.12413762 0.30159922 22.41812454 0 19 C-2.31 18.67 -4.62 18.34 -7 18 C-7 17.34 -7 16.68 -7 16 C-8.45833358 14.37485532 -8.45833358 14.37485532 -10 13 C-7.94921875 12.77213542 -5.8984375 12.54427083 -3.84765625 12.31640625 C-1.98859771 12.18113386 -1.98859771 12.18113386 -1 11 C-0.76636119 9.15108054 -0.58696365 7.29511969 -0.4375 5.4375 C-0.35371094 4.42558594 -0.26992188 3.41367187 -0.18359375 2.37109375 C-0.12300781 1.58863281 -0.06242188 0.80617188 0 0 Z " fill="#00D3C9" transform="translate(568,569)"/>
  <path d="M0 0 C2 2 2 2 2.20254517 4.10073853 C2.16923599 5.3997963 2.16923599 5.3997963 2.13525391 6.72509766 C2.11508209 7.70596344 2.09491028 8.68682922 2.0741272 9.69741821 C2.02583267 11.28965714 2.02583267 11.28965714 1.9765625 12.9140625 C1.95153656 13.99883881 1.92651062 15.08361511 1.90072632 16.20126343 C1.81835928 19.67615234 1.72183383 23.15048699 1.625 26.625 C1.56677756 28.97653964 1.50947394 31.32810222 1.453125 33.6796875 C1.3127557 39.45343379 1.16075128 45.2267872 1 51 C0.67 51 0.34 51 0 51 C0 34.83 0 18.66 0 2 C-4.95 2 -9.9 2 -15 2 C-15 1.67 -15 1.34 -15 1 C-12.54220024 0.77873822 -10.08472352 0.57249605 -7.625 0.375 C-6.57699219 0.27832031 -6.57699219 0.27832031 -5.5078125 0.1796875 C-3.67630889 0.03880261 -1.83687252 0.01238341 0 0 Z " fill="#01B7AF" transform="translate(881,555)"/>
  <path d="M0 0 C1.258125 0.226875 2.51625 0.45375 3.8125 0.6875 C2.8225 1.0175 1.8325 1.3475 0.8125 1.6875 C0.8125 2.3475 0.8125 3.0075 0.8125 3.6875 C2.4625 3.6875 4.1125 3.6875 5.8125 3.6875 C6.1425 4.3475 6.4725 5.0075 6.8125 5.6875 C3.59798731 7.29475635 0.37637464 6.74498185 -3.1875 6.6875 C-3.5175 5.6975 -3.8475 4.7075 -4.1875 3.6875 C-5.1775 3.3575 -6.1675 3.0275 -7.1875 2.6875 C-5.15110924 -0.49436057 -3.4972064 -0.45804119 0 0 Z " fill="#00C2BA" transform="translate(560.1875,583.3125)"/>
  <path d="M0 0 C2 2 2 2 2.1953125 4.1640625 C2.17210937 4.97617187 2.14890625 5.78828125 2.125 6.625 C2.10695313 7.44226563 2.08890625 8.25953125 2.0703125 9.1015625 C2.03550781 10.04128906 2.03550781 10.04128906 2 11 C1.34 10.01 0.68 9.02 0 8 C-0.66 8 -1.32 8 -2 8 C-2 15.26 -2 22.52 -2 30 C-2.33 30 -2.66 30 -3 30 C-3.33 21.75 -3.66 13.5 -4 5 C-3.34 5 -2.68 5 -2 5 C-1.34 3.35 -0.68 1.7 0 0 Z " fill="#00DED3" transform="translate(625,555)"/>
  <path d="M0 0 C0.16470588 9.55294118 0.16470588 9.55294118 -1 14 C-1.99 14.66 -2.98 15.32 -4 16 C-4.33 11.05 -4.66 6.1 -5 1 C-3 0 -3 0 0 0 Z " fill="#00BEB6" transform="translate(628,562)"/>
  <path d="M0 0 C-0.47348414 4.1666604 -1.04696841 6.92884715 -4 10 C-4.66 10 -5.32 10 -6 10 C-6 7.03 -6 4.06 -6 1 C-3 0 -3 0 0 0 Z " fill="#00BBB4" transform="translate(626,552)"/>
  <path d="M0 0 C0.66 0 1.32 0 2 0 C2 3.3 2 6.6 2 10 C-1.0979597 11.54897985 -4.26216552 10.83239539 -7.625 10.5625 C-8.33140625 10.51029297 -9.0378125 10.45808594 -9.765625 10.40429688 C-11.51079987 10.27458793 -13.25545725 10.13795046 -15 10 C-15 9.67 -15 9.34 -15 9 C-10.05 9 -5.1 9 0 9 C0 6.03 0 3.06 0 0 Z " fill="#02B0AB" transform="translate(957,526)"/>
  <path d="M0 0 C0.33 0.66 0.66 1.32 1 2 C0.109375 4.28515625 0.109375 4.28515625 -1.25 7.0625 C-3.57414254 11.96974247 -5.38629117 16.81914534 -7 22 C-9 19 -9 19 -8.625 16.8125 C-8.41875 16.214375 -8.2125 15.61625 -8 15 C-7.34 15 -6.68 15 -6 15 C-5.9071875 13.7934375 -5.9071875 13.7934375 -5.8125 12.5625 C-4.73463007 7.8364549 -2.48408581 4.12486573 0 0 Z " fill="#00DACF" transform="translate(506,551)"/>
  <path d="M0 0 C0 4.09214774 -1.60222874 5.19193703 -4.3125 8.1875 C-5.11300781 9.08855469 -5.91351562 9.98960937 -6.73828125 10.91796875 C-9 13 -9 13 -12 13 C-8.04 8.71 -4.08 4.42 0 0 Z " fill="#170E18" transform="translate(1112,418)"/>
  <path d="M0 0 C0.33 0.99 0.66 1.98 1 3 C0.34 3 -0.32 3 -1 3 C-0.67 4.65 -0.34 6.3 0 8 C-2.475 7.01 -2.475 7.01 -5 6 C-5 5.01 -5 4.02 -5 3 C-2.5 1.3125 -2.5 1.3125 0 0 Z " fill="#16101C" transform="translate(335,407)"/>
  <path d="M0 0 C0.33 0 0.66 0 1 0 C1.06058594 0.75925781 1.12117187 1.51851562 1.18359375 2.30078125 C1.26738281 3.29464844 1.35117187 4.28851562 1.4375 5.3125 C1.55931641 6.79169922 1.55931641 6.79169922 1.68359375 8.30078125 C1.91812559 11.09375599 1.91812559 11.09375599 3 14 C2.01 14.495 2.01 14.495 1 15 C-1.1385485 12.8614515 -1.42655063 11.86724686 -2 9 C-1.67 9 -1.34 9 -1 9 C-0.67 6.03 -0.34 3.06 0 0 Z " fill="#0C303A" transform="translate(578,565)"/>
  <path d="M0 0 C4.77609498 1.64178265 8.79382904 4.26546702 13 7 C11 8 11 8 8.1875 7.4375 C4.1127794 5.5998809 2.63361921 3.56313187 0 0 Z " fill="#150F1A" transform="translate(356,457)"/>
  <path d="M0 0 C0 2.64 0 5.28 0 8 C-0.99 8.33 -1.98 8.66 -3 9 C-3 6.36 -3 3.72 -3 1 C-1 0 -1 0 0 0 Z " fill="#00BBB3" transform="translate(544,577)"/>
  <path d="M0 0 C-1.485 1.485 -1.485 1.485 -3 3 C-2.34 3.33 -1.68 3.66 -1 4 C-1.33 4.66 -1.66 5.32 -2 6 C-4.31 5.01 -6.62 4.02 -9 3 C-6.40821726 0.40821726 -3.54324677 -1.77162338 0 0 Z " fill="#160E17" transform="translate(760,414)"/>
  <path d="M0 0 C0 3 0 3 -1.3125 4.38671875 C-2.875 5.59114583 -4.4375 6.79557292 -6 8 C-6.66 7.67 -7.32 7.34 -8 7 C-5.36 4.69 -2.72 2.38 0 0 Z " fill="#150C16" transform="translate(604,636)"/>
  <path d="M0 0 C0 0.99 0 1.98 0 3 C-2.5 5.1875 -2.5 5.1875 -5 7 C-5.66 6.67 -6.32 6.34 -7 6 C-4.69 4.02 -2.38 2.04 0 0 Z " fill="#00D4CA" transform="translate(600,626)"/>
</svg>